<svg xmlns="http://www.w3.org/2000/svg" xmlns:xlink="http://www.w3.org/1999/xlink" width="500" zoomAndPan="magnify" viewBox="0 0 375 374.999991" height="500" preserveAspectRatio="xMidYMid meet" version="1.0"><defs><g/><clipPath id="c04573ce3a"><path d="M 0 211.386719 L 295.558594 211.386719 L 295.558594 245.488281 L 0 245.488281 Z M 0 211.386719 " clip-rule="nonzero"/></clipPath><clipPath id="fd5fbb1b69"><path d="M 14.886719 211.386719 L 278.414062 211.386719 C 282.933594 211.386719 287.273438 213.183594 290.46875 216.378906 C 293.667969 219.578125 295.464844 223.914062 295.464844 228.4375 C 295.464844 232.957031 293.667969 237.296875 290.46875 240.492188 C 287.273438 243.691406 282.933594 245.488281 278.414062 245.488281 L 14.886719 245.488281 C 10.363281 245.488281 6.027344 243.691406 2.828125 240.492188 C -0.367188 237.296875 -2.164062 232.957031 -2.164062 228.4375 C -2.164062 223.914062 -0.367188 219.578125 2.828125 216.378906 C 6.027344 213.183594 10.363281 211.386719 14.886719 211.386719 Z M 14.886719 211.386719 " clip-rule="nonzero"/></clipPath></defs><path stroke-linecap="butt" transform="matrix(0.981171, 0, 0, 0.981171, 38.058913, -44.610979)" fill="none" stroke-linejoin="miter" d="M 193.757325 108.238859 C 187.769581 112.435057 182.47855 115.72752 177.888212 118.12421 C 173.293893 120.516918 168.803085 122.364201 164.411807 123.662076 C 159.319837 131.747919 153.754102 139.411753 147.714602 146.649597 C 141.675103 153.88346 135.384787 160.898357 128.847636 167.686324 C 122.310485 174.474291 115.669823 181.087085 108.933611 187.524706 C 102.193418 193.966308 95.63238 200.380041 89.242534 206.765906 C 93.434751 212.757631 98.228131 219.446068 103.618692 226.831217 C 109.009254 234.220347 114.821824 241.657252 121.060384 249.141932 C 127.298944 256.630593 133.887851 263.940099 140.827105 271.078413 C 147.766358 278.216727 154.852916 284.53093 162.090761 290.021022 C 169.328605 295.511114 176.713754 299.926279 184.250189 303.270497 C 191.786625 306.614716 199.247417 308.286825 206.636547 308.286825 C 209.232298 308.286825 211.975353 307.988234 214.869695 307.391052 C 217.768017 306.789889 220.761889 305.74283 223.855291 304.245894 C 217.867548 310.735271 212.600404 315.799373 208.05784 319.442182 C 203.515277 323.088973 199.697294 325.756385 196.603892 327.456363 C 193.008857 329.550481 189.915455 330.7966 187.319704 331.198703 C 184.126772 331.497294 180.233146 330.748826 175.638827 328.953299 C 171.048489 327.153791 166.056048 324.633683 160.665487 321.388995 C 155.274925 318.144307 149.685302 314.326324 143.896619 309.935047 C 138.107936 305.543769 132.466558 300.901676 126.976466 296.008766 C 120.885211 290.319613 114.399816 283.730706 107.512318 276.246027 C 101.620124 269.856181 94.959555 262.092816 87.52265 252.959915 C 80.085745 243.827013 72.473667 233.420124 64.686415 221.739246 L 77.561657 205.567561 C 80.55951 203.075322 84.102789 199.954051 88.195475 196.211712 C 92.288162 192.465391 96.579909 188.372704 101.070716 183.933652 C 105.565505 179.490619 110.131956 174.772882 114.77405 169.780442 C 119.416144 164.791983 123.783534 159.775655 127.87622 154.73544 C 131.968907 149.691243 135.611716 144.726671 138.804649 139.833761 C 142.001562 134.944832 144.493801 130.350513 146.293309 126.058766 C 143.398968 126.357357 139.354056 126.759459 134.162555 127.257111 C 128.971054 127.754763 123.08284 128.503231 116.493934 129.502515 C 121.884495 125.111237 126.72565 121.767019 131.017397 119.469859 C 135.313125 117.176681 139.003709 115.476703 142.101093 114.377889 C 145.692146 113.183525 148.936834 112.482831 151.831176 112.283771 C 155.326681 112.383301 159.168551 112.331545 163.360767 112.132485 C 167.552984 111.933424 171.621783 111.65872 175.567165 111.308374 C 179.508565 110.962008 183.1036 110.512131 186.348288 109.962724 C 189.592977 109.413317 192.061328 108.840022 193.757325 108.238859 Z M 90.440879 310.683515 C 85.050317 314.27855 80.607284 317.371952 77.115761 319.967702 C 73.620256 322.563453 70.451211 324.685439 67.604644 326.32968 C 64.762058 327.977902 62.015022 329.200134 59.371497 330.000358 C 56.72399 330.7966 53.606701 331.198703 50.011666 331.198703 C 45.222267 331.198703 41.1256 330.999642 37.733607 330.59754 C 34.337632 330.199419 30.945639 330.000358 27.549665 330.000358 C 25.853669 330.000358 24.133785 330.076001 22.386033 330.223306 C 20.63828 330.374592 18.715355 330.69707 16.621237 331.198703 C 19.416048 328.802013 21.960043 326.206262 24.257202 323.411451 C 26.554362 320.61664 28.525062 317.172891 30.173284 313.080205 C 31.817525 308.987518 33.091513 304.070721 33.991267 298.329812 C 34.88704 292.588904 35.336917 285.677519 35.336917 277.591676 L 35.336917 126.357357 C 32.243515 126.659929 28.501175 127.05805 24.105916 127.555702 C 19.714639 128.057335 14.722198 128.706272 9.132576 129.502515 C 14.523138 125.111237 19.392161 121.767019 23.731682 119.469859 C 28.075185 117.176681 31.793638 115.476703 34.88704 114.377889 C 38.482075 113.183525 41.675007 112.482831 44.469818 112.283771 C 47.965323 112.383301 51.835061 112.331545 56.075053 112.132485 C 60.319025 111.933424 64.411712 111.65872 68.353112 111.308374 C 72.298494 110.962008 75.917416 110.512131 79.209879 109.962724 C 82.506323 109.413317 84.950787 108.840022 86.547253 108.238859 C 81.857385 111.336242 77.6373 113.95588 73.89496 116.101754 C 70.15262 118.247627 66.581473 120.019267 63.189479 121.416672 C 62.687847 139.487396 62.265838 155.6551 61.915491 169.931728 C 61.565145 184.208356 61.266554 196.860649 61.015737 207.888608 C 60.768902 218.920548 60.569842 228.455552 60.418556 236.489639 C 60.26727 244.523725 60.143852 251.387336 60.044322 257.076488 C 59.745731 270.353832 59.6462 279.438959 59.745731 284.331869 C 59.6462 288.022453 59.144568 291.669244 58.248795 295.260298 C 57.448571 298.457211 56.250226 301.825317 54.65376 305.368596 C 53.057294 308.911875 50.760134 312.132676 47.766262 315.027018 C 49.661319 315.226078 51.508602 315.325609 53.30811 315.325609 C 55.103637 315.325609 56.851389 315.325609 58.547386 315.325609 C 63.639357 315.325609 68.154051 315.102661 72.099433 314.652784 C 76.040833 314.202907 79.361165 313.677387 82.056446 313.080205 C 85.249378 312.379511 88.044189 311.583269 90.440879 310.683515 Z M 90.440879 310.683515 " stroke="#ffffff" stroke-width="23.000025" stroke-opacity="1" stroke-miterlimit="4"/><g fill="#000000" fill-opacity="1"><g transform="translate(38.058913, 279.17543)"><g><path d="M 190.109375 -217.59375 C 184.234375 -213.476562 179.039062 -210.242188 174.53125 -207.890625 C 170.03125 -205.535156 165.625 -203.722656 161.3125 -202.453125 C 156.320312 -194.515625 150.863281 -186.992188 144.9375 -179.890625 C 139.007812 -172.796875 132.835938 -165.914062 126.421875 -159.25 C 120.003906 -152.59375 113.488281 -146.101562 106.875 -139.78125 C 100.269531 -133.46875 93.832031 -127.179688 87.5625 -120.921875 C 91.675781 -115.035156 96.378906 -108.46875 101.671875 -101.21875 C 106.960938 -93.976562 112.664062 -86.679688 118.78125 -79.328125 C 124.90625 -71.984375 131.367188 -64.8125 138.171875 -57.8125 C 144.984375 -50.8125 151.9375 -44.613281 159.03125 -39.21875 C 166.132812 -33.832031 173.382812 -29.5 180.78125 -26.21875 C 188.175781 -22.9375 195.5 -21.296875 202.75 -21.296875 C 205.289062 -21.296875 207.984375 -21.585938 210.828125 -22.171875 C 213.671875 -22.765625 216.609375 -23.796875 219.640625 -25.265625 C 213.765625 -18.898438 208.597656 -13.929688 204.140625 -10.359375 C 199.679688 -6.785156 195.9375 -4.164062 192.90625 -2.5 C 189.375 -0.4375 186.335938 0.785156 183.796875 1.171875 C 180.660156 1.460938 176.835938 0.726562 172.328125 -1.03125 C 167.828125 -2.789062 162.929688 -5.257812 157.640625 -8.4375 C 152.347656 -11.625 146.863281 -15.375 141.1875 -19.6875 C 135.507812 -24 129.976562 -28.550781 124.59375 -33.34375 C 118.613281 -38.925781 112.242188 -45.394531 105.484375 -52.75 C 99.703125 -59.007812 93.160156 -66.617188 85.859375 -75.578125 C 78.566406 -84.546875 71.101562 -94.757812 63.46875 -106.21875 L 76.109375 -122.09375 C 79.046875 -124.539062 82.519531 -127.597656 86.53125 -131.265625 C 90.550781 -134.941406 94.765625 -138.957031 99.171875 -143.3125 C 103.578125 -147.675781 108.054688 -152.304688 112.609375 -157.203125 C 117.171875 -162.097656 121.457031 -167.019531 125.46875 -171.96875 C 129.488281 -176.914062 133.0625 -181.785156 136.1875 -186.578125 C 139.320312 -191.378906 141.773438 -195.890625 143.546875 -200.109375 C 140.703125 -199.804688 136.734375 -199.410156 131.640625 -198.921875 C 126.546875 -198.429688 120.765625 -197.695312 114.296875 -196.71875 C 119.585938 -201.03125 124.335938 -204.3125 128.546875 -206.5625 C 132.765625 -208.820312 136.390625 -210.488281 139.421875 -211.5625 C 142.953125 -212.738281 146.132812 -213.425781 148.96875 -213.625 C 152.40625 -213.519531 156.175781 -213.566406 160.28125 -213.765625 C 164.394531 -213.960938 168.382812 -214.234375 172.25 -214.578125 C 176.125 -214.921875 179.648438 -215.359375 182.828125 -215.890625 C 186.015625 -216.429688 188.441406 -217 190.109375 -217.59375 Z M 88.734375 -18.953125 C 83.453125 -15.421875 79.09375 -12.382812 75.65625 -9.84375 C 72.226562 -7.300781 69.117188 -5.21875 66.328125 -3.59375 C 63.535156 -1.976562 60.84375 -0.78125 58.25 0 C 55.65625 0.78125 52.597656 1.171875 49.078125 1.171875 C 44.367188 1.171875 40.347656 0.972656 37.015625 0.578125 C 33.691406 0.191406 30.363281 0 27.03125 0 C 25.363281 0 23.671875 0.0703125 21.953125 0.21875 C 20.242188 0.363281 18.363281 0.679688 16.3125 1.171875 C 19.050781 -1.171875 21.546875 -3.710938 23.796875 -6.453125 C 26.054688 -9.203125 27.992188 -12.582031 29.609375 -16.59375 C 31.222656 -20.613281 32.46875 -25.4375 33.34375 -31.0625 C 34.226562 -36.695312 34.671875 -43.484375 34.671875 -51.421875 L 34.671875 -199.8125 C 31.640625 -199.519531 27.96875 -199.128906 23.65625 -198.640625 C 19.34375 -198.148438 14.445312 -197.507812 8.96875 -196.71875 C 14.25 -201.03125 19.019531 -204.3125 23.28125 -206.5625 C 27.539062 -208.820312 31.191406 -210.488281 34.234375 -211.5625 C 37.753906 -212.738281 40.890625 -213.425781 43.640625 -213.625 C 47.066406 -213.519531 50.859375 -213.566406 55.015625 -213.765625 C 59.179688 -213.960938 63.195312 -214.234375 67.0625 -214.578125 C 70.9375 -214.921875 74.488281 -215.359375 77.71875 -215.890625 C 80.945312 -216.429688 83.347656 -217 84.921875 -217.59375 C 80.316406 -214.550781 76.175781 -211.976562 72.5 -209.875 C 68.832031 -207.769531 65.332031 -206.03125 62 -204.65625 C 61.507812 -186.925781 61.09375 -171.054688 60.75 -157.046875 C 60.40625 -143.046875 60.109375 -130.632812 59.859375 -119.8125 C 59.617188 -108.988281 59.425781 -99.632812 59.28125 -91.75 C 59.132812 -83.863281 59.015625 -77.128906 58.921875 -71.546875 C 58.617188 -58.523438 58.519531 -49.613281 58.625 -44.8125 C 58.519531 -41.1875 58.03125 -37.609375 57.15625 -34.078125 C 56.363281 -30.953125 55.1875 -27.648438 53.625 -24.171875 C 52.0625 -20.691406 49.8125 -17.53125 46.875 -14.6875 C 48.726562 -14.488281 50.535156 -14.390625 52.296875 -14.390625 C 54.066406 -14.390625 55.785156 -14.390625 57.453125 -14.390625 C 62.441406 -14.390625 66.867188 -14.609375 70.734375 -15.046875 C 74.609375 -15.492188 77.867188 -16.015625 80.515625 -16.609375 C 83.648438 -17.285156 86.390625 -18.066406 88.734375 -18.953125 Z M 88.734375 -18.953125 "/></g></g></g><path stroke-linecap="butt" transform="matrix(0.786801, 0, 0, 0.786801, 125.094956, 76.112544)" fill="none" stroke-linejoin="miter" d="M 86.548473 108.241816 C 81.856811 111.334838 77.636797 113.956212 73.893396 116.100972 C 70.149995 118.245732 66.58036 120.018138 63.189454 121.41819 C 62.688017 139.484815 62.266016 155.654916 61.913521 169.933457 C 61.56599 184.207034 61.268107 196.857147 61.01987 207.88876 C 60.76667 218.920374 60.568081 228.452641 60.419139 236.490526 C 60.270197 244.523447 60.146079 251.389659 60.04182 257.07923 C 59.743937 270.354898 59.644642 279.44034 59.743937 284.330592 C 59.644642 288.024345 59.247465 291.569157 58.547439 294.960063 C 57.946707 297.854496 56.998445 300.927659 55.702653 304.169623 C 54.401895 307.416551 52.609631 310.186867 50.310964 312.480568 C 56.298419 312.679157 61.913521 312.778452 67.156267 312.778452 C 72.399014 312.778452 77.413384 312.778452 82.204341 312.778452 C 95.882152 312.778452 107.162001 312.579863 116.043889 312.182685 C 124.930743 311.780542 132.015402 311.308894 137.307796 310.75781 C 142.60019 310.21169 146.343591 309.710253 148.537998 309.263428 C 150.732405 308.811638 152.033162 308.488931 152.43034 308.290343 C 147.142911 311.879837 142.749131 314.977824 139.253967 317.574374 C 135.758802 320.165959 132.640957 322.29086 129.895465 323.934183 C 127.149974 325.582471 124.454129 326.803793 121.812897 327.603113 C 119.1667 328.402433 116.093537 328.804576 112.603337 328.804576 L 89.542201 328.804576 C 83.053309 328.804576 76.018297 328.829399 68.427236 328.879047 C 60.84114 328.928694 53.60754 329.027988 46.716505 329.17693 C 39.830435 329.325872 33.66425 329.574108 28.222914 329.926603 C 22.786543 330.274134 18.919024 330.7011 16.620358 331.197572 C 19.415496 328.799611 21.962399 326.208026 24.256101 323.412887 C 26.554767 320.617748 28.525762 317.172231 30.17405 313.0813 C 31.817373 308.985404 33.093307 304.070328 33.991921 298.331109 C 34.890536 292.59189 35.337361 285.676032 35.337361 277.593464 L 35.337361 126.358088 C 32.244339 126.655972 28.500938 127.058114 24.107159 127.554586 C 19.71338 128.056023 14.723834 128.706402 9.133556 129.500758 C 14.525245 125.111943 19.390673 121.76572 23.734805 119.472018 C 28.073972 117.173352 31.792549 115.475417 34.890536 114.378213 C 38.480031 113.181715 41.677312 112.481689 44.472451 112.2831 C 47.967615 112.382395 51.835134 112.332747 56.075007 112.134159 C 60.319845 111.93557 64.410776 111.657545 68.352766 111.310015 C 72.29972 110.962484 75.914038 110.510694 79.210614 109.964575 C 82.507189 109.413491 84.949833 108.837583 86.548473 108.241816 Z M 152.43034 308.290343 L 152.43034 308.136436 C 152.529635 308.037142 152.628929 307.987494 152.733188 307.987494 Z M 152.43034 308.290343 " stroke="#ffffff" stroke-width="23.000025" stroke-opacity="1" stroke-miterlimit="4"/><g fill="#000000" fill-opacity="1"><g transform="translate(125.094956, 335.756968)"><g><path d="M 68.09375 -174.484375 C 64.40625 -172.046875 61.085938 -169.984375 58.140625 -168.296875 C 55.191406 -166.609375 52.382812 -165.210938 49.71875 -164.109375 C 49.320312 -149.898438 48.984375 -137.175781 48.703125 -125.9375 C 48.429688 -114.707031 48.195312 -104.753906 48 -96.078125 C 47.8125 -87.398438 47.65625 -79.898438 47.53125 -73.578125 C 47.414062 -67.253906 47.320312 -61.851562 47.25 -57.375 C 47.007812 -46.925781 46.925781 -39.78125 47 -35.9375 C 46.925781 -33.03125 46.613281 -30.238281 46.0625 -27.5625 C 45.59375 -25.289062 44.847656 -22.878906 43.828125 -20.328125 C 42.804688 -17.773438 41.390625 -15.59375 39.578125 -13.78125 C 44.296875 -13.625 48.71875 -13.546875 52.84375 -13.546875 C 56.96875 -13.546875 60.910156 -13.546875 64.671875 -13.546875 C 75.429688 -13.546875 84.304688 -13.703125 91.296875 -14.015625 C 98.296875 -14.328125 103.875 -14.695312 108.03125 -15.125 C 112.195312 -15.5625 115.144531 -15.957031 116.875 -16.3125 C 118.601562 -16.664062 119.625 -16.921875 119.9375 -17.078125 C 115.769531 -14.253906 112.3125 -11.820312 109.5625 -9.78125 C 106.8125 -7.738281 104.359375 -6.066406 102.203125 -4.765625 C 100.046875 -3.472656 97.925781 -2.507812 95.84375 -1.875 C 93.757812 -1.25 91.34375 -0.9375 88.59375 -0.9375 L 70.453125 -0.9375 C 65.347656 -0.9375 59.8125 -0.914062 53.84375 -0.875 C 47.875 -0.84375 42.175781 -0.765625 36.75 -0.640625 C 31.332031 -0.523438 26.484375 -0.328125 22.203125 -0.046875 C 17.921875 0.222656 14.878906 0.550781 13.078125 0.9375 C 15.273438 -0.945312 17.273438 -2.988281 19.078125 -5.1875 C 20.890625 -7.382812 22.441406 -10.09375 23.734375 -13.3125 C 25.035156 -16.53125 26.035156 -20.394531 26.734375 -24.90625 C 27.441406 -29.425781 27.796875 -34.867188 27.796875 -41.234375 L 27.796875 -160.21875 C 25.367188 -159.988281 22.425781 -159.675781 18.96875 -159.28125 C 15.507812 -158.882812 11.582031 -158.375 7.1875 -157.75 C 11.425781 -161.207031 15.253906 -163.835938 18.671875 -165.640625 C 22.085938 -167.453125 25.015625 -168.789062 27.453125 -169.65625 C 30.273438 -170.59375 32.785156 -171.140625 34.984375 -171.296875 C 37.734375 -171.222656 40.773438 -171.265625 44.109375 -171.421875 C 47.453125 -171.578125 50.675781 -171.789062 53.78125 -172.0625 C 56.882812 -172.34375 59.734375 -172.695312 62.328125 -173.125 C 64.921875 -173.5625 66.84375 -174.015625 68.09375 -174.484375 Z M 119.9375 -17.078125 L 119.9375 -17.203125 C 120.007812 -17.273438 120.085938 -17.3125 120.171875 -17.3125 Z M 119.9375 -17.078125 "/></g></g></g><g clip-path="url(#c04573ce3a)"><g clip-path="url(#fd5fbb1b69)"><path fill="#ffffff" d="M -2.164062 211.386719 L 295.425781 211.386719 L 295.425781 245.488281 L -2.164062 245.488281 Z M -2.164062 211.386719 " fill-opacity="1" fill-rule="nonzero"/></g></g><g fill="#000000" fill-opacity="1"><g transform="translate(71.181064, 237.022398)"><g><path d="M 12.515625 -5.546875 C 12.515625 -5.097656 12.367188 -4.632812 12.078125 -4.15625 C 11.785156 -3.6875 11.40625 -3.226562 10.9375 -2.78125 C 10.46875 -2.34375 9.941406 -1.925781 9.359375 -1.53125 C 8.773438 -1.144531 8.1875 -0.800781 7.59375 -0.5 C 7.007812 -0.195312 6.445312 0.0390625 5.90625 0.21875 C 5.363281 0.40625 4.898438 0.503906 4.515625 0.515625 C 4.160156 0.523438 3.773438 0.488281 3.359375 0.40625 C 2.953125 0.332031 2.5625 0.238281 2.1875 0.125 C 1.8125 0.0078125 1.476562 -0.113281 1.1875 -0.25 C 0.894531 -0.382812 0.695312 -0.507812 0.59375 -0.625 C 0.53125 -0.6875 0.476562 -0.757812 0.4375 -0.84375 C 0.394531 -0.925781 0.375 -1.019531 0.375 -1.125 C 0.375 -1.226562 0.398438 -1.332031 0.453125 -1.4375 C 0.515625 -1.550781 0.613281 -1.664062 0.75 -1.78125 C 0.875 -1.875 1.023438 -1.992188 1.203125 -2.140625 C 1.367188 -2.265625 1.570312 -2.425781 1.8125 -2.625 C 2.0625 -2.820312 2.363281 -3.0625 2.71875 -3.34375 C 2.59375 -3.207031 2.507812 -3.082031 2.46875 -2.96875 C 2.4375 -2.851562 2.425781 -2.75 2.4375 -2.65625 C 2.4375 -2.550781 2.46875 -2.453125 2.53125 -2.359375 C 2.625 -2.242188 2.78125 -2.117188 3 -1.984375 C 3.21875 -1.847656 3.484375 -1.71875 3.796875 -1.59375 C 4.109375 -1.476562 4.457031 -1.378906 4.84375 -1.296875 C 5.226562 -1.222656 5.632812 -1.1875 6.0625 -1.1875 C 6.570312 -1.1875 7.082031 -1.234375 7.59375 -1.328125 C 8.101562 -1.429688 8.5625 -1.597656 8.96875 -1.828125 C 9.375 -2.066406 9.703125 -2.378906 9.953125 -2.765625 C 10.203125 -3.160156 10.328125 -3.648438 10.328125 -4.234375 C 10.328125 -4.765625 10.203125 -5.234375 9.953125 -5.640625 C 9.703125 -6.046875 9.375 -6.410156 8.96875 -6.734375 C 8.570312 -7.066406 8.113281 -7.363281 7.59375 -7.625 C 7.070312 -7.894531 6.539062 -8.160156 6 -8.421875 C 5.457031 -8.691406 4.925781 -8.960938 4.40625 -9.234375 C 3.882812 -9.503906 3.421875 -9.804688 3.015625 -10.140625 C 2.617188 -10.472656 2.296875 -10.851562 2.046875 -11.28125 C 1.796875 -11.707031 1.671875 -12.203125 1.671875 -12.765625 C 1.671875 -13.304688 1.800781 -13.835938 2.0625 -14.359375 C 2.332031 -14.878906 2.6875 -15.367188 3.125 -15.828125 C 3.5625 -16.296875 4.0625 -16.722656 4.625 -17.109375 C 5.195312 -17.503906 5.78125 -17.84375 6.375 -18.125 C 6.96875 -18.414062 7.550781 -18.640625 8.125 -18.796875 C 8.695312 -18.960938 9.21875 -19.050781 9.6875 -19.0625 C 10.132812 -19.070312 10.5625 -19.050781 10.96875 -19 C 11.382812 -18.945312 11.734375 -18.875 12.015625 -18.78125 C 12.296875 -18.6875 12.488281 -18.566406 12.59375 -18.421875 C 12.695312 -18.273438 12.671875 -18.113281 12.515625 -17.9375 C 12.378906 -17.78125 12.21875 -17.617188 12.03125 -17.453125 C 11.851562 -17.304688 11.632812 -17.140625 11.375 -16.953125 C 11.125 -16.773438 10.816406 -16.578125 10.453125 -16.359375 C 10.523438 -16.472656 10.5625 -16.570312 10.5625 -16.65625 C 10.570312 -16.738281 10.570312 -16.804688 10.5625 -16.859375 C 10.53125 -16.910156 10.492188 -16.960938 10.453125 -17.015625 C 10.390625 -17.066406 10.28125 -17.117188 10.125 -17.171875 C 9.976562 -17.234375 9.789062 -17.296875 9.5625 -17.359375 C 9.332031 -17.421875 9.070312 -17.472656 8.78125 -17.515625 C 8.488281 -17.554688 8.179688 -17.578125 7.859375 -17.578125 C 7.335938 -17.578125 6.832031 -17.507812 6.34375 -17.375 C 5.851562 -17.25 5.421875 -17.054688 5.046875 -16.796875 C 4.679688 -16.535156 4.382812 -16.203125 4.15625 -15.796875 C 3.9375 -15.398438 3.828125 -14.925781 3.828125 -14.375 C 3.828125 -13.78125 3.953125 -13.257812 4.203125 -12.8125 C 4.453125 -12.363281 4.78125 -11.96875 5.1875 -11.625 C 5.59375 -11.28125 6.054688 -10.96875 6.578125 -10.6875 C 7.097656 -10.40625 7.628906 -10.132812 8.171875 -9.875 C 8.710938 -9.613281 9.242188 -9.347656 9.765625 -9.078125 C 10.285156 -8.804688 10.75 -8.503906 11.15625 -8.171875 C 11.5625 -7.835938 11.890625 -7.457031 12.140625 -7.03125 C 12.390625 -6.613281 12.515625 -6.117188 12.515625 -5.546875 Z M 12.515625 -5.546875 "/></g></g></g><g fill="#000000" fill-opacity="1"><g transform="translate(86.742378, 237.022398)"><g><path d="M 7.9375 -1.703125 C 7.46875 -1.378906 7.078125 -1.101562 6.765625 -0.875 C 6.460938 -0.644531 6.1875 -0.457031 5.9375 -0.3125 C 5.6875 -0.175781 5.441406 -0.0703125 5.203125 0 C 4.972656 0.0703125 4.703125 0.109375 4.390625 0.109375 C 3.972656 0.109375 3.613281 0.0859375 3.3125 0.046875 C 3.007812 0.015625 2.710938 0 2.421875 0 C 2.265625 0 2.109375 0.00390625 1.953125 0.015625 C 1.804688 0.0351562 1.640625 0.0664062 1.453125 0.109375 C 1.703125 -0.0976562 1.925781 -0.328125 2.125 -0.578125 C 2.332031 -0.828125 2.503906 -1.128906 2.640625 -1.484375 C 2.785156 -1.847656 2.898438 -2.28125 2.984375 -2.78125 C 3.066406 -3.28125 3.109375 -3.882812 3.109375 -4.59375 L 3.109375 -17.875 C 2.828125 -17.851562 2.492188 -17.816406 2.109375 -17.765625 C 1.722656 -17.722656 1.285156 -17.671875 0.796875 -17.609375 C 1.273438 -17.992188 1.703125 -18.285156 2.078125 -18.484375 C 2.460938 -18.679688 2.789062 -18.828125 3.0625 -18.921875 C 3.375 -19.035156 3.65625 -19.097656 3.90625 -19.109375 C 4.207031 -19.097656 4.546875 -19.101562 4.921875 -19.125 C 5.296875 -19.144531 5.65625 -19.171875 6 -19.203125 C 6.34375 -19.234375 6.660156 -19.269531 6.953125 -19.3125 C 7.242188 -19.363281 7.457031 -19.414062 7.59375 -19.46875 C 7.1875 -19.195312 6.816406 -18.96875 6.484375 -18.78125 C 6.160156 -18.59375 5.847656 -18.4375 5.546875 -18.3125 C 5.503906 -16.726562 5.46875 -15.304688 5.4375 -14.046875 C 5.40625 -12.796875 5.378906 -11.6875 5.359375 -10.71875 C 5.335938 -9.75 5.316406 -8.910156 5.296875 -8.203125 C 5.285156 -7.503906 5.273438 -6.90625 5.265625 -6.40625 C 5.242188 -5.238281 5.238281 -4.441406 5.25 -4.015625 C 5.238281 -3.679688 5.191406 -3.359375 5.109375 -3.046875 C 5.046875 -2.765625 4.941406 -2.46875 4.796875 -2.15625 C 4.660156 -1.851562 4.457031 -1.570312 4.1875 -1.3125 C 4.351562 -1.289062 4.515625 -1.28125 4.671875 -1.28125 C 4.835938 -1.28125 4.992188 -1.28125 5.140625 -1.28125 C 5.585938 -1.28125 5.984375 -1.300781 6.328125 -1.34375 C 6.671875 -1.382812 6.960938 -1.429688 7.203125 -1.484375 C 7.484375 -1.546875 7.726562 -1.617188 7.9375 -1.703125 Z M 7.9375 -1.703125 "/></g></g></g><g fill="#000000" fill-opacity="1"><g transform="translate(97.163091, 237.022398)"><g><path d="M 3.796875 -2.421875 C 3.773438 -2.335938 3.738281 -2.242188 3.6875 -2.140625 C 3.632812 -2.046875 3.554688 -1.925781 3.453125 -1.78125 C 3.359375 -1.632812 3.226562 -1.460938 3.0625 -1.265625 C 3.3125 -1.210938 3.566406 -1.175781 3.828125 -1.15625 C 4.085938 -1.132812 4.328125 -1.125 4.546875 -1.125 C 4.984375 -1.125 5.335938 -1.140625 5.609375 -1.171875 C 5.890625 -1.210938 6.054688 -1.242188 6.109375 -1.265625 C 5.703125 -1.066406 5.363281 -0.882812 5.09375 -0.71875 C 4.820312 -0.550781 4.539062 -0.40625 4.25 -0.28125 C 3.96875 -0.164062 3.644531 -0.0664062 3.28125 0.015625 C 2.914062 0.0976562 2.429688 0.15625 1.828125 0.1875 C 1.859375 0.164062 1.914062 0.09375 2 -0.03125 L 1.75 0.1875 C 1.625 0.195312 1.492188 0.203125 1.359375 0.203125 C 1.234375 0.203125 1.101562 0.203125 0.96875 0.203125 L 2.1875 -0.703125 C 2.21875 -0.910156 2.25 -1.144531 2.28125 -1.40625 C 2.320312 -1.675781 2.351562 -1.957031 2.375 -2.25 C 2.40625 -2.539062 2.429688 -2.832031 2.453125 -3.125 C 2.484375 -3.414062 2.507812 -3.703125 2.53125 -3.984375 C 2.570312 -4.628906 2.609375 -5.296875 2.640625 -5.984375 C 2.679688 -7.972656 2.710938 -9.925781 2.734375 -11.84375 C 2.765625 -13.769531 2.78125 -15.707031 2.78125 -17.65625 L 4.234375 -20 C 4.285156 -19.164062 4.445312 -18.359375 4.71875 -17.578125 C 4.988281 -16.796875 5.34375 -16.035156 5.78125 -15.296875 C 6.21875 -14.566406 6.71875 -13.863281 7.28125 -13.1875 C 7.84375 -12.507812 8.4375 -11.847656 9.0625 -11.203125 C 9.695312 -10.554688 10.34375 -9.921875 11 -9.296875 C 11.65625 -8.671875 12.296875 -8.050781 12.921875 -7.4375 C 13.546875 -6.832031 14.132812 -6.226562 14.6875 -5.625 C 15.25 -5.03125 15.738281 -4.429688 16.15625 -3.828125 C 16.289062 -5.722656 16.375 -7.578125 16.40625 -9.390625 C 16.445312 -11.203125 16.46875 -13.003906 16.46875 -14.796875 C 16.46875 -15.609375 16.445312 -16.242188 16.40625 -16.703125 C 16.363281 -17.160156 16.296875 -17.539062 16.203125 -17.84375 C 16.097656 -17.832031 15.988281 -17.828125 15.875 -17.828125 C 15.757812 -17.828125 15.640625 -17.828125 15.515625 -17.828125 C 15.203125 -17.828125 14.90625 -17.816406 14.625 -17.796875 C 14.34375 -17.785156 14.109375 -17.738281 13.921875 -17.65625 C 14.242188 -17.882812 14.554688 -18.09375 14.859375 -18.28125 C 15.171875 -18.476562 15.484375 -18.644531 15.796875 -18.78125 C 16.109375 -18.914062 16.421875 -19.019531 16.734375 -19.09375 C 17.054688 -19.175781 17.398438 -19.21875 17.765625 -19.21875 C 17.972656 -19.21875 18.203125 -19.207031 18.453125 -19.1875 C 18.703125 -19.175781 18.972656 -19.148438 19.265625 -19.109375 C 19.035156 -18.960938 18.8125 -18.828125 18.59375 -18.703125 C 18.382812 -18.585938 18.179688 -18.484375 17.984375 -18.390625 C 17.960938 -15.710938 17.882812 -13.078125 17.75 -10.484375 C 17.613281 -7.890625 17.484375 -5.300781 17.359375 -2.71875 C 16.835938 -1.863281 16.457031 -1.160156 16.21875 -0.609375 C 15.988281 -0.0546875 15.859375 0.28125 15.828125 0.40625 L 15.828125 0.453125 C 15.421875 -0.453125 14.925781 -1.296875 14.34375 -2.078125 C 13.757812 -2.867188 13.117188 -3.625 12.421875 -4.34375 C 11.722656 -5.0625 10.992188 -5.765625 10.234375 -6.453125 C 9.484375 -7.140625 8.742188 -7.835938 8.015625 -8.546875 C 7.285156 -9.265625 6.59375 -10.007812 5.9375 -10.78125 C 5.289062 -11.5625 4.722656 -12.398438 4.234375 -13.296875 C 4.222656 -12.535156 4.210938 -11.773438 4.203125 -11.015625 C 4.191406 -10.253906 4.175781 -9.507812 4.15625 -8.78125 C 4.132812 -8.050781 4.109375 -7.351562 4.078125 -6.6875 C 4.054688 -6.019531 4.03125 -5.410156 4 -4.859375 C 3.96875 -4.304688 3.9375 -3.820312 3.90625 -3.40625 C 3.875 -2.988281 3.835938 -2.660156 3.796875 -2.421875 Z M 1.828125 0.1875 C 1.804688 0.195312 1.78125 0.203125 1.75 0.203125 L 1.75 0.1875 Z M 1.828125 0.1875 "/></g></g></g><g fill="#000000" fill-opacity="1"><g transform="translate(119.403239, 237.022398)"><g><path d="M 17.34375 -18.0625 C 17.1875 -17.863281 16.992188 -17.664062 16.765625 -17.46875 C 16.566406 -17.300781 16.320312 -17.125 16.03125 -16.9375 C 15.75 -16.757812 15.421875 -16.59375 15.046875 -16.4375 C 15.171875 -16.601562 15.179688 -16.773438 15.078125 -16.953125 C 14.984375 -17.128906 14.765625 -17.289062 14.421875 -17.4375 C 14.078125 -17.59375 13.613281 -17.71875 13.03125 -17.8125 C 12.445312 -17.90625 11.734375 -17.953125 10.890625 -17.953125 C 10.398438 -17.953125 9.875 -17.898438 9.3125 -17.796875 C 8.75 -17.703125 8.191406 -17.53125 7.640625 -17.28125 C 7.085938 -17.039062 6.550781 -16.71875 6.03125 -16.3125 C 5.519531 -15.90625 5.066406 -15.394531 4.671875 -14.78125 C 4.285156 -14.175781 3.972656 -13.453125 3.734375 -12.609375 C 3.503906 -11.773438 3.390625 -10.8125 3.390625 -9.71875 C 3.390625 -8.625 3.519531 -7.660156 3.78125 -6.828125 C 4.050781 -5.992188 4.40625 -5.273438 4.84375 -4.671875 C 5.289062 -4.066406 5.800781 -3.566406 6.375 -3.171875 C 6.945312 -2.773438 7.53125 -2.457031 8.125 -2.21875 C 8.71875 -1.976562 9.300781 -1.804688 9.875 -1.703125 C 10.445312 -1.609375 10.96875 -1.5625 11.4375 -1.5625 C 11.96875 -1.570312 12.523438 -1.613281 13.109375 -1.6875 C 13.609375 -1.75 14.15625 -1.835938 14.75 -1.953125 C 15.351562 -2.066406 15.945312 -2.238281 16.53125 -2.46875 C 15.675781 -1.789062 14.882812 -1.269531 14.15625 -0.90625 C 13.425781 -0.550781 12.785156 -0.285156 12.234375 -0.109375 C 11.597656 0.0976562 11.015625 0.210938 10.484375 0.234375 C 9.179688 0.234375 7.957031 0.046875 6.8125 -0.328125 C 5.664062 -0.710938 4.660156 -1.265625 3.796875 -1.984375 C 2.929688 -2.710938 2.25 -3.601562 1.75 -4.65625 C 1.25 -5.707031 1 -6.90625 1 -8.25 C 1 -9.070312 1.078125 -9.84375 1.234375 -10.5625 C 1.390625 -11.28125 1.597656 -11.9375 1.859375 -12.53125 C 2.117188 -13.125 2.410156 -13.660156 2.734375 -14.140625 C 3.054688 -14.617188 3.382812 -15.039062 3.71875 -15.40625 C 4.0625 -15.769531 4.390625 -16.070312 4.703125 -16.3125 C 5.023438 -16.5625 5.304688 -16.75 5.546875 -16.875 C 5.773438 -17.007812 6.066406 -17.160156 6.421875 -17.328125 C 6.773438 -17.492188 7.164062 -17.660156 7.59375 -17.828125 C 8.019531 -18.003906 8.46875 -18.175781 8.9375 -18.34375 C 9.414062 -18.507812 9.898438 -18.65625 10.390625 -18.78125 C 10.878906 -18.914062 11.359375 -19.019531 11.828125 -19.09375 C 12.296875 -19.175781 12.738281 -19.21875 13.15625 -19.21875 C 14.09375 -19.21875 14.847656 -19.171875 15.421875 -19.078125 C 16.003906 -18.992188 16.445312 -18.890625 16.75 -18.765625 C 17.050781 -18.640625 17.238281 -18.507812 17.3125 -18.375 C 17.394531 -18.25 17.40625 -18.144531 17.34375 -18.0625 Z M 17.34375 -18.0625 "/></g></g></g><g fill="#000000" fill-opacity="1"><g transform="translate(138.948189, 237.022398)"><g><path d="M 11.5625 -10.3125 C 11.476562 -10.269531 11.359375 -10.203125 11.203125 -10.109375 C 11.054688 -10.023438 10.851562 -9.894531 10.59375 -9.71875 C 10.34375 -9.550781 10.003906 -9.316406 9.578125 -9.015625 C 9.648438 -9.148438 9.648438 -9.25 9.578125 -9.3125 C 9.503906 -9.382812 9.40625 -9.4375 9.28125 -9.46875 C 9.132812 -9.5 8.957031 -9.507812 8.75 -9.5 C 8.4375 -9.476562 7.984375 -9.445312 7.390625 -9.40625 C 6.796875 -9.375 6.128906 -9.34375 5.390625 -9.3125 C 5.390625 -7.914062 5.378906 -6.773438 5.359375 -5.890625 C 5.347656 -5.015625 5.335938 -4.332031 5.328125 -3.84375 C 5.304688 -3.257812 5.285156 -2.832031 5.265625 -2.5625 C 5.253906 -2.382812 5.203125 -2.210938 5.109375 -2.046875 C 5.046875 -1.898438 4.9375 -1.742188 4.78125 -1.578125 C 4.625 -1.410156 4.410156 -1.257812 4.140625 -1.125 L 10.09375 -1.125 C 10.375 -1.125 10.660156 -1.144531 10.953125 -1.1875 C 11.191406 -1.207031 11.453125 -1.25 11.734375 -1.3125 C 12.015625 -1.375 12.285156 -1.46875 12.546875 -1.59375 C 12.109375 -1.175781 11.671875 -0.859375 11.234375 -0.640625 C 10.804688 -0.421875 10.414062 -0.265625 10.0625 -0.171875 C 9.632812 -0.0546875 9.234375 0.0078125 8.859375 0.03125 C 8.003906 0.03125 7.191406 0.03125 6.421875 0.03125 C 5.660156 0.0390625 4.972656 0.0546875 4.359375 0.078125 C 3.742188 0.109375 3.21875 0.144531 2.78125 0.1875 C 2.351562 0.226562 2.046875 0.273438 1.859375 0.328125 C 2.128906 0.0546875 2.335938 -0.207031 2.484375 -0.46875 C 2.640625 -0.738281 2.753906 -1.035156 2.828125 -1.359375 C 2.910156 -1.679688 2.960938 -2.046875 2.984375 -2.453125 C 3.015625 -2.859375 3.023438 -3.34375 3.015625 -3.90625 L 3.015625 -9.296875 C 2.753906 -9.296875 2.503906 -9.296875 2.265625 -9.296875 C 2.023438 -9.304688 1.789062 -9.320312 1.5625 -9.34375 L 3.015625 -10.09375 C 3.015625 -10.570312 3.007812 -11.070312 3 -11.59375 C 3 -12.113281 3 -12.671875 3 -13.265625 C 3 -13.859375 2.992188 -14.5 2.984375 -15.1875 C 2.984375 -15.875 2.984375 -16.625 2.984375 -17.4375 C 2.585938 -17.4375 2.210938 -17.441406 1.859375 -17.453125 C 1.515625 -17.460938 1.191406 -17.476562 0.890625 -17.5 L 3.34375 -18.796875 C 5.007812 -18.796875 6.429688 -18.804688 7.609375 -18.828125 C 8.785156 -18.847656 9.757812 -18.875 10.53125 -18.90625 C 11.425781 -18.9375 12.171875 -18.972656 12.765625 -19.015625 C 13.066406 -19.015625 13.265625 -18.988281 13.359375 -18.9375 C 13.453125 -18.882812 13.488281 -18.828125 13.46875 -18.765625 C 13.457031 -18.710938 13.40625 -18.65625 13.3125 -18.59375 C 13.226562 -18.539062 13.148438 -18.5 13.078125 -18.46875 C 13.003906 -18.4375 12.875 -18.363281 12.6875 -18.25 C 12.519531 -18.144531 12.285156 -17.988281 11.984375 -17.78125 C 11.679688 -17.582031 11.265625 -17.304688 10.734375 -16.953125 C 10.910156 -17.148438 10.984375 -17.289062 10.953125 -17.375 C 10.929688 -17.46875 10.875 -17.539062 10.78125 -17.59375 C 10.664062 -17.632812 10.507812 -17.65625 10.3125 -17.65625 C 10.144531 -17.632812 9.894531 -17.617188 9.5625 -17.609375 C 9.226562 -17.597656 8.835938 -17.582031 8.390625 -17.5625 C 7.953125 -17.539062 7.472656 -17.519531 6.953125 -17.5 C 6.429688 -17.488281 5.898438 -17.476562 5.359375 -17.46875 C 5.367188 -16.0625 5.375 -14.800781 5.375 -13.6875 C 5.382812 -12.582031 5.390625 -11.566406 5.390625 -10.640625 C 6.285156 -10.640625 7.085938 -10.648438 7.796875 -10.671875 C 8.515625 -10.703125 9.128906 -10.726562 9.640625 -10.75 C 10.234375 -10.789062 10.757812 -10.820312 11.21875 -10.84375 C 11.507812 -10.851562 11.703125 -10.835938 11.796875 -10.796875 C 11.898438 -10.753906 11.941406 -10.703125 11.921875 -10.640625 C 11.898438 -10.578125 11.847656 -10.507812 11.765625 -10.4375 C 11.679688 -10.375 11.613281 -10.332031 11.5625 -10.3125 Z M 11.5625 -10.3125 "/></g></g></g><g fill="#000000" fill-opacity="1"><g transform="translate(154.733006, 237.022398)"><g/></g></g><g fill="#000000" fill-opacity="1"><g transform="translate(163.457715, 237.022398)"><g><path d="M 11.4375 -2.203125 C 11.15625 -1.953125 10.851562 -1.695312 10.53125 -1.4375 C 10.207031 -1.175781 9.863281 -0.941406 9.5 -0.734375 C 9.144531 -0.523438 8.769531 -0.347656 8.375 -0.203125 C 7.976562 -0.0546875 7.578125 0.0195312 7.171875 0.03125 C 6.742188 0.0390625 6.3125 0.0351562 5.875 0.015625 C 5.4375 0.00390625 5.003906 -0.00390625 4.578125 -0.015625 C 4.160156 -0.0351562 3.753906 -0.0507812 3.359375 -0.0625 C 2.972656 -0.0820312 2.625 -0.0859375 2.3125 -0.078125 C 2.0625 -0.0664062 1.8125 -0.0546875 1.5625 -0.046875 C 1.34375 -0.046875 1.109375 -0.0390625 0.859375 -0.03125 C 0.617188 -0.03125 0.394531 -0.03125 0.1875 -0.03125 C 0.625 -0.851562 1.046875 -1.59375 1.453125 -2.25 C 1.859375 -2.90625 2.21875 -3.46875 2.53125 -3.9375 C 2.882812 -4.488281 3.222656 -4.984375 3.546875 -5.421875 C 3.867188 -5.835938 4.234375 -6.285156 4.640625 -6.765625 C 5.054688 -7.242188 5.476562 -7.738281 5.90625 -8.25 C 6.34375 -8.769531 6.757812 -9.300781 7.15625 -9.84375 C 7.5625 -10.394531 7.921875 -10.953125 8.234375 -11.515625 C 8.554688 -12.078125 8.8125 -12.640625 9 -13.203125 C 9.195312 -13.765625 9.296875 -14.316406 9.296875 -14.859375 C 9.296875 -15.785156 9.050781 -16.476562 8.5625 -16.9375 C 8.082031 -17.394531 7.410156 -17.625 6.546875 -17.625 C 6.242188 -17.625 5.953125 -17.597656 5.671875 -17.546875 C 5.390625 -17.492188 5.160156 -17.414062 4.984375 -17.3125 C 4.890625 -17.257812 4.800781 -17.160156 4.71875 -17.015625 C 4.632812 -16.878906 4.566406 -16.71875 4.515625 -16.53125 C 4.460938 -16.351562 4.421875 -16.148438 4.390625 -15.921875 C 4.359375 -15.703125 4.34375 -15.484375 4.34375 -15.265625 C 4.34375 -15.003906 4.363281 -14.753906 4.40625 -14.515625 C 4.457031 -14.285156 4.535156 -14.085938 4.640625 -13.921875 C 4.742188 -13.765625 4.882812 -13.644531 5.0625 -13.5625 C 5.238281 -13.488281 5.453125 -13.484375 5.703125 -13.546875 C 5.253906 -13.210938 4.890625 -12.945312 4.609375 -12.75 C 4.328125 -12.5625 4.097656 -12.414062 3.921875 -12.3125 C 3.710938 -12.195312 3.550781 -12.113281 3.4375 -12.0625 C 3.3125 -12.007812 3.164062 -12.019531 3 -12.09375 C 2.832031 -12.175781 2.671875 -12.300781 2.515625 -12.46875 C 2.367188 -12.644531 2.242188 -12.851562 2.140625 -13.09375 C 2.046875 -13.34375 2 -13.601562 2 -13.875 C 2 -14.414062 2.222656 -15.007812 2.671875 -15.65625 C 3.117188 -16.300781 3.789062 -16.921875 4.6875 -17.515625 C 4.976562 -17.722656 5.300781 -17.925781 5.65625 -18.125 C 6.007812 -18.320312 6.375 -18.492188 6.75 -18.640625 C 7.132812 -18.796875 7.519531 -18.921875 7.90625 -19.015625 C 8.289062 -19.117188 8.660156 -19.171875 9.015625 -19.171875 C 9.441406 -19.171875 9.816406 -19.082031 10.140625 -18.90625 C 10.472656 -18.726562 10.75 -18.492188 10.96875 -18.203125 C 11.1875 -17.921875 11.351562 -17.597656 11.46875 -17.234375 C 11.582031 -16.867188 11.640625 -16.5 11.640625 -16.125 C 11.640625 -15.425781 11.539062 -14.769531 11.34375 -14.15625 C 11.15625 -13.550781 10.898438 -12.96875 10.578125 -12.40625 C 10.253906 -11.84375 9.878906 -11.300781 9.453125 -10.78125 C 9.035156 -10.257812 8.585938 -9.734375 8.109375 -9.203125 C 7.640625 -8.671875 7.15625 -8.128906 6.65625 -7.578125 C 6.164062 -7.035156 5.695312 -6.460938 5.25 -5.859375 C 4.8125 -5.253906 4.398438 -4.613281 4.015625 -3.9375 C 3.628906 -3.257812 3.3125 -2.519531 3.0625 -1.71875 L 3.609375 -1.71875 C 4.328125 -1.71875 4.945312 -1.710938 5.46875 -1.703125 C 5.988281 -1.703125 6.5 -1.703125 7 -1.703125 C 7.488281 -1.703125 7.960938 -1.703125 8.421875 -1.703125 C 8.878906 -1.710938 9.300781 -1.734375 9.6875 -1.765625 C 10.082031 -1.796875 10.425781 -1.847656 10.71875 -1.921875 C 11.019531 -1.992188 11.257812 -2.085938 11.4375 -2.203125 Z M 11.4375 -2.203125 "/></g></g></g><g fill="#000000" fill-opacity="1"><g transform="translate(178.532577, 237.022398)"><g><path d="M 15.078125 -11.65625 C 15.078125 -10.707031 15 -9.84375 14.84375 -9.0625 C 14.695312 -8.289062 14.5 -7.585938 14.25 -6.953125 C 14.007812 -6.328125 13.734375 -5.765625 13.421875 -5.265625 C 13.109375 -4.765625 12.789062 -4.320312 12.46875 -3.9375 C 12.070312 -3.457031 11.628906 -2.976562 11.140625 -2.5 C 10.648438 -2.019531 10.128906 -1.585938 9.578125 -1.203125 C 9.035156 -0.828125 8.46875 -0.519531 7.875 -0.28125 C 7.289062 -0.0390625 6.695312 0.078125 6.09375 0.078125 C 5.414062 0.078125 4.828125 -0.0507812 4.328125 -0.3125 C 3.828125 -0.582031 3.394531 -0.9375 3.03125 -1.375 C 2.675781 -1.8125 2.378906 -2.3125 2.140625 -2.875 C 1.910156 -3.445312 1.726562 -4.035156 1.59375 -4.640625 C 1.457031 -5.242188 1.363281 -5.84375 1.3125 -6.4375 C 1.257812 -7.03125 1.234375 -7.578125 1.234375 -8.078125 C 1.234375 -8.628906 1.257812 -9.1875 1.3125 -9.75 C 1.363281 -10.320312 1.441406 -10.867188 1.546875 -11.390625 C 1.660156 -11.910156 1.796875 -12.398438 1.953125 -12.859375 C 2.117188 -13.328125 2.3125 -13.742188 2.53125 -14.109375 C 2.800781 -14.554688 3.117188 -14.988281 3.484375 -15.40625 C 3.847656 -15.832031 4.238281 -16.226562 4.65625 -16.59375 C 5.070312 -16.957031 5.5 -17.289062 5.9375 -17.59375 C 6.382812 -17.894531 6.820312 -18.15625 7.25 -18.375 C 7.6875 -18.59375 8.097656 -18.765625 8.484375 -18.890625 C 8.878906 -19.015625 9.238281 -19.082031 9.5625 -19.09375 C 10.25 -19.101562 10.863281 -19.003906 11.40625 -18.796875 C 11.945312 -18.597656 12.421875 -18.3125 12.828125 -17.9375 C 13.242188 -17.570312 13.59375 -17.140625 13.875 -16.640625 C 14.15625 -16.148438 14.382812 -15.625 14.5625 -15.0625 C 14.75 -14.507812 14.878906 -13.9375 14.953125 -13.34375 C 15.035156 -12.757812 15.078125 -12.195312 15.078125 -11.65625 Z M 12.765625 -10.640625 C 12.785156 -11.429688 12.695312 -12.234375 12.5 -13.046875 C 12.3125 -13.859375 12.019531 -14.59375 11.625 -15.25 C 11.226562 -15.90625 10.71875 -16.4375 10.09375 -16.84375 C 9.46875 -17.257812 8.734375 -17.46875 7.890625 -17.46875 C 7.210938 -17.46875 6.628906 -17.300781 6.140625 -16.96875 C 5.660156 -16.644531 5.25 -16.21875 4.90625 -15.6875 C 4.5625 -15.164062 4.285156 -14.566406 4.078125 -13.890625 C 3.867188 -13.222656 3.703125 -12.550781 3.578125 -11.875 C 3.460938 -11.195312 3.382812 -10.539062 3.34375 -9.90625 C 3.300781 -9.269531 3.28125 -8.722656 3.28125 -8.265625 C 3.28125 -7.796875 3.316406 -7.300781 3.390625 -6.78125 C 3.472656 -6.269531 3.59375 -5.769531 3.75 -5.28125 C 3.90625 -4.789062 4.101562 -4.320312 4.34375 -3.875 C 4.582031 -3.4375 4.867188 -3.050781 5.203125 -2.71875 C 5.535156 -2.394531 5.914062 -2.132812 6.34375 -1.9375 C 6.78125 -1.738281 7.257812 -1.640625 7.78125 -1.640625 C 8.488281 -1.640625 9.097656 -1.789062 9.609375 -2.09375 C 10.128906 -2.40625 10.566406 -2.8125 10.921875 -3.3125 C 11.285156 -3.8125 11.582031 -4.378906 11.8125 -5.015625 C 12.039062 -5.660156 12.21875 -6.316406 12.34375 -6.984375 C 12.476562 -7.648438 12.570312 -8.300781 12.625 -8.9375 C 12.6875 -9.570312 12.734375 -10.140625 12.765625 -10.640625 Z M 12.765625 -10.640625 "/></g></g></g><g fill="#000000" fill-opacity="1"><g transform="translate(197.091478, 237.022398)"><g><path d="M 11.4375 -2.203125 C 11.15625 -1.953125 10.851562 -1.695312 10.53125 -1.4375 C 10.207031 -1.175781 9.863281 -0.941406 9.5 -0.734375 C 9.144531 -0.523438 8.769531 -0.347656 8.375 -0.203125 C 7.976562 -0.0546875 7.578125 0.0195312 7.171875 0.03125 C 6.742188 0.0390625 6.3125 0.0351562 5.875 0.015625 C 5.4375 0.00390625 5.003906 -0.00390625 4.578125 -0.015625 C 4.160156 -0.0351562 3.753906 -0.0507812 3.359375 -0.0625 C 2.972656 -0.0820312 2.625 -0.0859375 2.3125 -0.078125 C 2.0625 -0.0664062 1.8125 -0.0546875 1.5625 -0.046875 C 1.34375 -0.046875 1.109375 -0.0390625 0.859375 -0.03125 C 0.617188 -0.03125 0.394531 -0.03125 0.1875 -0.03125 C 0.625 -0.851562 1.046875 -1.59375 1.453125 -2.25 C 1.859375 -2.90625 2.21875 -3.46875 2.53125 -3.9375 C 2.882812 -4.488281 3.222656 -4.984375 3.546875 -5.421875 C 3.867188 -5.835938 4.234375 -6.285156 4.640625 -6.765625 C 5.054688 -7.242188 5.476562 -7.738281 5.90625 -8.25 C 6.34375 -8.769531 6.757812 -9.300781 7.15625 -9.84375 C 7.5625 -10.394531 7.921875 -10.953125 8.234375 -11.515625 C 8.554688 -12.078125 8.8125 -12.640625 9 -13.203125 C 9.195312 -13.765625 9.296875 -14.316406 9.296875 -14.859375 C 9.296875 -15.785156 9.050781 -16.476562 8.5625 -16.9375 C 8.082031 -17.394531 7.410156 -17.625 6.546875 -17.625 C 6.242188 -17.625 5.953125 -17.597656 5.671875 -17.546875 C 5.390625 -17.492188 5.160156 -17.414062 4.984375 -17.3125 C 4.890625 -17.257812 4.800781 -17.160156 4.71875 -17.015625 C 4.632812 -16.878906 4.566406 -16.71875 4.515625 -16.53125 C 4.460938 -16.351562 4.421875 -16.148438 4.390625 -15.921875 C 4.359375 -15.703125 4.34375 -15.484375 4.34375 -15.265625 C 4.34375 -15.003906 4.363281 -14.753906 4.40625 -14.515625 C 4.457031 -14.285156 4.535156 -14.085938 4.640625 -13.921875 C 4.742188 -13.765625 4.882812 -13.644531 5.0625 -13.5625 C 5.238281 -13.488281 5.453125 -13.484375 5.703125 -13.546875 C 5.253906 -13.210938 4.890625 -12.945312 4.609375 -12.75 C 4.328125 -12.5625 4.097656 -12.414062 3.921875 -12.3125 C 3.710938 -12.195312 3.550781 -12.113281 3.4375 -12.0625 C 3.3125 -12.007812 3.164062 -12.019531 3 -12.09375 C 2.832031 -12.175781 2.671875 -12.300781 2.515625 -12.46875 C 2.367188 -12.644531 2.242188 -12.851562 2.140625 -13.09375 C 2.046875 -13.34375 2 -13.601562 2 -13.875 C 2 -14.414062 2.222656 -15.007812 2.671875 -15.65625 C 3.117188 -16.300781 3.789062 -16.921875 4.6875 -17.515625 C 4.976562 -17.722656 5.300781 -17.925781 5.65625 -18.125 C 6.007812 -18.320312 6.375 -18.492188 6.75 -18.640625 C 7.132812 -18.796875 7.519531 -18.921875 7.90625 -19.015625 C 8.289062 -19.117188 8.660156 -19.171875 9.015625 -19.171875 C 9.441406 -19.171875 9.816406 -19.082031 10.140625 -18.90625 C 10.472656 -18.726562 10.75 -18.492188 10.96875 -18.203125 C 11.1875 -17.921875 11.351562 -17.597656 11.46875 -17.234375 C 11.582031 -16.867188 11.640625 -16.5 11.640625 -16.125 C 11.640625 -15.425781 11.539062 -14.769531 11.34375 -14.15625 C 11.15625 -13.550781 10.898438 -12.96875 10.578125 -12.40625 C 10.253906 -11.84375 9.878906 -11.300781 9.453125 -10.78125 C 9.035156 -10.257812 8.585938 -9.734375 8.109375 -9.203125 C 7.640625 -8.671875 7.15625 -8.128906 6.65625 -7.578125 C 6.164062 -7.035156 5.695312 -6.460938 5.25 -5.859375 C 4.8125 -5.253906 4.398438 -4.613281 4.015625 -3.9375 C 3.628906 -3.257812 3.3125 -2.519531 3.0625 -1.71875 L 3.609375 -1.71875 C 4.328125 -1.71875 4.945312 -1.710938 5.46875 -1.703125 C 5.988281 -1.703125 6.5 -1.703125 7 -1.703125 C 7.488281 -1.703125 7.960938 -1.703125 8.421875 -1.703125 C 8.878906 -1.710938 9.300781 -1.734375 9.6875 -1.765625 C 10.082031 -1.796875 10.425781 -1.847656 10.71875 -1.921875 C 11.019531 -1.992188 11.257812 -2.085938 11.4375 -2.203125 Z M 11.4375 -2.203125 "/></g></g></g><g fill="#000000" fill-opacity="1"><g transform="translate(212.166348, 237.022398)"><g><path d="M 15.078125 -11.65625 C 15.078125 -10.707031 15 -9.84375 14.84375 -9.0625 C 14.695312 -8.289062 14.5 -7.585938 14.25 -6.953125 C 14.007812 -6.328125 13.734375 -5.765625 13.421875 -5.265625 C 13.109375 -4.765625 12.789062 -4.320312 12.46875 -3.9375 C 12.070312 -3.457031 11.628906 -2.976562 11.140625 -2.5 C 10.648438 -2.019531 10.128906 -1.585938 9.578125 -1.203125 C 9.035156 -0.828125 8.46875 -0.519531 7.875 -0.28125 C 7.289062 -0.0390625 6.695312 0.078125 6.09375 0.078125 C 5.414062 0.078125 4.828125 -0.0507812 4.328125 -0.3125 C 3.828125 -0.582031 3.394531 -0.9375 3.03125 -1.375 C 2.675781 -1.8125 2.378906 -2.3125 2.140625 -2.875 C 1.910156 -3.445312 1.726562 -4.035156 1.59375 -4.640625 C 1.457031 -5.242188 1.363281 -5.84375 1.3125 -6.4375 C 1.257812 -7.03125 1.234375 -7.578125 1.234375 -8.078125 C 1.234375 -8.628906 1.257812 -9.1875 1.3125 -9.75 C 1.363281 -10.320312 1.441406 -10.867188 1.546875 -11.390625 C 1.660156 -11.910156 1.796875 -12.398438 1.953125 -12.859375 C 2.117188 -13.328125 2.3125 -13.742188 2.53125 -14.109375 C 2.800781 -14.554688 3.117188 -14.988281 3.484375 -15.40625 C 3.847656 -15.832031 4.238281 -16.226562 4.65625 -16.59375 C 5.070312 -16.957031 5.5 -17.289062 5.9375 -17.59375 C 6.382812 -17.894531 6.820312 -18.15625 7.25 -18.375 C 7.6875 -18.59375 8.097656 -18.765625 8.484375 -18.890625 C 8.878906 -19.015625 9.238281 -19.082031 9.5625 -19.09375 C 10.25 -19.101562 10.863281 -19.003906 11.40625 -18.796875 C 11.945312 -18.597656 12.421875 -18.3125 12.828125 -17.9375 C 13.242188 -17.570312 13.59375 -17.140625 13.875 -16.640625 C 14.15625 -16.148438 14.382812 -15.625 14.5625 -15.0625 C 14.75 -14.507812 14.878906 -13.9375 14.953125 -13.34375 C 15.035156 -12.757812 15.078125 -12.195312 15.078125 -11.65625 Z M 12.765625 -10.640625 C 12.785156 -11.429688 12.695312 -12.234375 12.5 -13.046875 C 12.3125 -13.859375 12.019531 -14.59375 11.625 -15.25 C 11.226562 -15.90625 10.71875 -16.4375 10.09375 -16.84375 C 9.46875 -17.257812 8.734375 -17.46875 7.890625 -17.46875 C 7.210938 -17.46875 6.628906 -17.300781 6.140625 -16.96875 C 5.660156 -16.644531 5.25 -16.21875 4.90625 -15.6875 C 4.5625 -15.164062 4.285156 -14.566406 4.078125 -13.890625 C 3.867188 -13.222656 3.703125 -12.550781 3.578125 -11.875 C 3.460938 -11.195312 3.382812 -10.539062 3.34375 -9.90625 C 3.300781 -9.269531 3.28125 -8.722656 3.28125 -8.265625 C 3.28125 -7.796875 3.316406 -7.300781 3.390625 -6.78125 C 3.472656 -6.269531 3.59375 -5.769531 3.75 -5.28125 C 3.90625 -4.789062 4.101562 -4.320312 4.34375 -3.875 C 4.582031 -3.4375 4.867188 -3.050781 5.203125 -2.71875 C 5.535156 -2.394531 5.914062 -2.132812 6.34375 -1.9375 C 6.78125 -1.738281 7.257812 -1.640625 7.78125 -1.640625 C 8.488281 -1.640625 9.097656 -1.789062 9.609375 -2.09375 C 10.128906 -2.40625 10.566406 -2.8125 10.921875 -3.3125 C 11.285156 -3.8125 11.582031 -4.378906 11.8125 -5.015625 C 12.039062 -5.660156 12.21875 -6.316406 12.34375 -6.984375 C 12.476562 -7.648438 12.570312 -8.300781 12.625 -8.9375 C 12.6875 -9.570312 12.734375 -10.140625 12.765625 -10.640625 Z M 12.765625 -10.640625 "/></g></g></g><path stroke-linecap="butt" transform="matrix(0.786801, 0, 0, 0.786801, 201.751894, 18.731119)" fill="none" stroke-linejoin="miter" d="M 180.807819 169.330963 C 180.107793 176.023408 178.583623 182.184629 176.240274 187.824554 C 173.891961 193.464478 171.022351 198.607931 167.631446 203.249946 C 164.235576 207.891962 160.566646 212.03254 156.624656 215.676647 C 152.682666 219.320753 148.785359 222.513069 144.942664 225.258561 C 141.099969 228.004052 137.480686 230.302719 134.089781 232.149596 C 130.693911 233.996472 127.948419 235.416383 125.853306 236.414292 C 122.958873 237.710085 119.811239 238.8619 116.420334 239.85981 C 113.5259 240.65913 110.154854 241.403838 106.312159 242.103864 C 102.469464 242.80389 98.353709 243.052126 93.959929 242.853537 L 109.380357 235.515678 C 115.069929 235.91782 120.764466 234.443297 126.454038 231.097075 C 132.14361 227.755816 137.182803 223.064154 141.576582 217.022086 C 145.965397 210.984984 149.435738 203.845713 151.982641 195.609238 C 154.529543 187.377729 155.452982 178.515699 154.752956 169.033079 C 154.152224 161.844161 152.181229 155.484352 148.839971 149.943721 C 145.493748 144.403091 141.477288 139.736252 136.785625 135.943204 C 132.093962 132.150156 127.000157 129.255723 121.509174 127.25494 C 116.018191 125.259121 110.730762 124.261212 105.636957 124.261212 C 102.146757 124.261212 97.951566 124.38533 93.061315 124.638531 C 88.171063 124.886767 82.977963 125.259121 77.48698 125.760558 C 77.189097 144.626504 76.86639 161.471807 76.513895 176.296468 C 76.166364 191.121129 75.838692 204.247856 75.540809 215.676647 C 75.242926 227.105438 74.969866 236.9902 74.716665 245.325969 C 74.468429 253.661738 74.195369 260.721573 73.892521 266.51044 C 73.296754 280.18825 72.74567 289.472281 72.249198 294.362533 C 71.94635 296.358351 71.449878 298.403817 70.749852 300.503894 C 70.14912 302.301124 69.329941 304.247295 68.27742 306.342408 C 67.229864 308.437521 65.909247 310.482987 64.310607 312.478805 C 68.605092 312.980242 72.472611 313.253302 75.918128 313.302949 C 79.358681 313.352596 82.531138 313.37742 85.425571 313.37742 C 92.311641 313.37742 97.380623 313.178831 100.622587 312.781653 C 103.864551 312.37951 105.736251 312.081627 106.237688 311.883038 C 101.044588 314.479588 96.154337 316.872584 91.561968 319.066992 C 86.9696 321.266364 82.580785 323.212535 78.385595 324.91047 C 74.195369 326.608405 70.173944 327.929021 66.331249 328.877283 C 62.488554 329.825545 58.720329 330.297194 55.026576 330.297194 L 28.971712 330.297194 L 42.148086 321.464953 C 42.848112 318.868403 43.523314 315.775381 44.173693 312.180922 C 44.819106 308.586463 45.395014 304.718944 45.891487 300.578365 C 46.392924 296.432822 46.814925 292.143302 47.16742 287.699875 C 47.514951 283.256449 47.842622 278.892458 48.140506 274.597973 C 48.741237 264.71321 49.188062 254.232681 49.485946 243.151421 C 49.689499 227.78064 49.888088 212.906331 50.086677 198.53346 C 50.185971 192.441746 50.285266 186.151442 50.38456 179.66255 C 50.483855 173.178622 50.558326 166.813848 50.612938 160.573192 C 50.662585 154.332536 50.737056 148.444375 50.83635 142.903745 C 50.935645 137.363115 51.034939 132.448039 51.134233 128.153555 L 24.031814 130.998341 L 53.229346 113.4828 C 56.024485 113.780683 58.7948 113.954448 61.540292 114.004096 C 64.285783 114.053743 67.105746 114.078566 70.000179 114.078566 C 74.89043 114.078566 79.636705 113.904801 84.224109 113.557271 C 88.816477 113.204775 93.359198 112.807597 97.852272 112.355808 C 102.345346 111.908983 106.788772 111.486981 111.177587 111.084839 C 115.571366 110.687661 119.965145 110.484107 124.35396 110.484107 C 132.242904 110.484107 139.779353 111.834512 146.968271 114.530356 C 154.152224 117.2262 160.417704 121.118543 165.759745 126.207383 C 171.096822 131.301189 175.167894 137.487233 177.963033 144.775445 C 180.758172 152.063658 181.706434 160.250485 180.807819 169.330963 Z M 180.807819 169.330963 " stroke="#ffffff" stroke-width="23.000025" stroke-opacity="1" stroke-miterlimit="4"/><g fill="#000000" fill-opacity="1"><g transform="translate(214.180896, 278.375543)"><g><path d="M 129.828125 -126.40625 C 129.273438 -121.144531 128.078125 -116.296875 126.234375 -111.859375 C 124.390625 -107.421875 122.128906 -103.375 119.453125 -99.71875 C 116.785156 -96.070312 113.898438 -92.816406 110.796875 -89.953125 C 107.703125 -87.085938 104.640625 -84.570312 101.609375 -82.40625 C 98.585938 -80.25 95.738281 -78.441406 93.0625 -76.984375 C 90.394531 -75.535156 88.238281 -74.421875 86.59375 -73.640625 C 84.3125 -72.617188 81.835938 -71.710938 79.171875 -70.921875 C 76.890625 -70.296875 74.238281 -69.707031 71.21875 -69.15625 C 68.195312 -68.601562 64.957031 -68.40625 61.5 -68.5625 L 73.640625 -74.34375 C 78.109375 -74.03125 82.582031 -75.1875 87.0625 -77.8125 C 91.539062 -80.445312 95.503906 -84.140625 98.953125 -88.890625 C 102.410156 -93.640625 105.140625 -99.253906 107.140625 -105.734375 C 109.148438 -112.210938 109.878906 -119.1875 109.328125 -126.65625 C 108.859375 -132.300781 107.304688 -137.300781 104.671875 -141.65625 C 102.046875 -146.019531 98.882812 -149.691406 95.1875 -152.671875 C 91.5 -155.660156 87.492188 -157.941406 83.171875 -159.515625 C 78.859375 -161.085938 74.695312 -161.875 70.6875 -161.875 C 67.9375 -161.875 64.632812 -161.773438 60.78125 -161.578125 C 56.9375 -161.378906 52.851562 -161.085938 48.53125 -160.703125 C 48.300781 -145.859375 48.046875 -132.601562 47.765625 -120.9375 C 47.492188 -109.269531 47.238281 -98.9375 47 -89.9375 C 46.769531 -80.945312 46.554688 -73.171875 46.359375 -66.609375 C 46.160156 -60.054688 45.945312 -54.503906 45.71875 -49.953125 C 45.238281 -39.191406 44.804688 -31.890625 44.421875 -28.046875 C 44.179688 -26.472656 43.785156 -24.859375 43.234375 -23.203125 C 42.765625 -21.796875 42.117188 -20.265625 41.296875 -18.609375 C 40.472656 -16.960938 39.429688 -15.351562 38.171875 -13.78125 C 41.546875 -13.382812 44.585938 -13.164062 47.296875 -13.125 C 50.003906 -13.09375 52.5 -13.078125 54.78125 -13.078125 C 60.195312 -13.078125 64.179688 -13.234375 66.734375 -13.546875 C 69.285156 -13.859375 70.757812 -14.09375 71.15625 -14.25 C 67.070312 -12.207031 63.222656 -10.320312 59.609375 -8.59375 C 55.992188 -6.875 52.535156 -5.34375 49.234375 -4 C 45.941406 -2.664062 42.78125 -1.625 39.75 -0.875 C 36.726562 -0.132812 33.765625 0.234375 30.859375 0.234375 L 10.375 0.234375 L 20.734375 -6.71875 C 21.285156 -8.757812 21.816406 -11.191406 22.328125 -14.015625 C 22.835938 -16.847656 23.285156 -19.894531 23.671875 -23.15625 C 24.066406 -26.414062 24.398438 -29.789062 24.671875 -33.28125 C 24.953125 -36.78125 25.210938 -40.21875 25.453125 -43.59375 C 25.921875 -51.363281 26.273438 -59.609375 26.515625 -68.328125 C 26.671875 -80.421875 26.828125 -92.125 26.984375 -103.4375 C 27.054688 -108.226562 27.128906 -113.175781 27.203125 -118.28125 C 27.285156 -123.382812 27.347656 -128.390625 27.390625 -133.296875 C 27.429688 -138.210938 27.488281 -142.847656 27.5625 -147.203125 C 27.644531 -151.566406 27.722656 -155.4375 27.796875 -158.8125 L 6.484375 -156.578125 L 29.453125 -170.359375 C 31.648438 -170.117188 33.828125 -169.976562 35.984375 -169.9375 C 38.148438 -169.90625 40.367188 -169.890625 42.640625 -169.890625 C 46.492188 -169.890625 50.226562 -170.023438 53.84375 -170.296875 C 57.457031 -170.578125 61.03125 -170.890625 64.5625 -171.234375 C 68.09375 -171.585938 71.585938 -171.921875 75.046875 -172.234375 C 78.503906 -172.554688 81.960938 -172.71875 85.421875 -172.71875 C 91.617188 -172.71875 97.546875 -171.65625 103.203125 -169.53125 C 108.859375 -167.414062 113.785156 -164.351562 117.984375 -160.34375 C 122.191406 -156.332031 125.394531 -151.460938 127.59375 -145.734375 C 129.789062 -140.003906 130.535156 -133.5625 129.828125 -126.40625 Z M 129.828125 -126.40625 "/></g></g></g></svg>